<?xml version="1.0" encoding="UTF-8" standalone="no"?>
<!-- Created with Inkscape (http://www.inkscape.org/) -->

<svg width="100%" height="100%"
   
   
   viewBox="0 0 187.60985 185.03394"
   version="1.1"
   id="svg1"
   xmlns="http://www.w3.org/2000/svg"
   xmlns:svg="http://www.w3.org/2000/svg">
  <defs
     id="defs1">
    <clipPath
       clipPathUnits="userSpaceOnUse"
       id="clipPath34">
      <path
         id="path35"
         style="fill:#ff0000;fill-opacity:1;fill-rule:nonzero;stroke:none;stroke-width:34.1"
         d="M -106.16094,320.95293 V 1194.6988 H 2324.6629 V 320.95293 Z m 725.89042,236.76856 h 0.0682 c 0.0614,0.2387 0.13299,1.04449 0.20119,2.39757 3.59121,-1.07653 7.26088,-1.24908 11.12246,0.20119 1.47142,0.55174 3.45931,0.80988 4.19591,2.19775 2.47361,4.66137 3.28042,10.0389 4.9285,15.05194 -2.85928,2.69083 -5.30722,5.8087 -8.525,8.05879 -1.16008,0.81124 -2.78869,0.64551 -4.1959,0.7993 -0.67893,0.075 -1.35445,0.17732 -2.06475,0.20119 -1.11644,0.98276 -2.53534,1.49358 -4.3291,1.39878 -0.12617,-0.007 -0.26939,0.007 -0.39965,0 -0.10912,-0.006 -0.22506,0.006 -0.33418,0 -0.27962,-0.0188 -0.61107,-0.0682 -0.9323,-0.13299 -0.22506,-0.0133 -0.43852,0.0153 -0.66597,0 -0.15345,5.57849 -0.28303,7.59332 -0.39965,0 -0.46376,-0.0339 -0.92957,-0.15345 -1.39878,-0.20119 -1.00391,-0.1023 -2.02213,-0.19778 -2.99705,-0.39965 l -0.0682,0.0682 -0.0682,0.0682 v 0.0682 h -0.0682 l -0.0682,0.0682 h -0.0682 -0.0682 -0.0682 -0.0682 -0.0682 -0.0682 l -0.0682,-0.0682 c -0.0955,-0.0477 -0.16368,-0.13299 -0.26598,-0.20119 v -0.0682 h 0.0682 0.0682 v -0.0682 c -0.22165,-0.058 -0.45012,-0.1364 -0.66598,-0.20119 l 0.0682,0.0682 v 0.0682 c 0.0328,0.0341 0.1023,0.0375 0.13299,0.0682 0.0323,0.026 0.16368,0.11253 0.20119,0.13299 -1.17269,0.66802 -2.52578,1.275 -3.52989,1.93143 -1.12871,0.73792 -2.49783,0.9681 -3.79629,1.33194 -3.11537,0.8733 -4.77082,0.98686 -7.65916,1.33195 -0.89172,0.39965 -1.86664,0.76998 -2.86372,0.99913 -1.49563,0.34373 -3.06968,0.30008 -4.59549,0.46615 h -0.0682 -0.0682 -0.0682 v -0.0682 h -0.0682 v -0.0682 h 0.0682 l 0.0682,-0.0682 c -1.5478,0.15004 -3.05672,0.5756 -4.59548,0.7993 -6.8333,0.99231 -5.8531,0.74781 -13.58674,1.06562 -1.42572,-0.0194 -2.82996,-0.0512 -4.2625,-0.0682 3.11708,1.86698 6.28023,3.58102 9.85705,5.26153 1.84174,0.86546 3.74503,1.57338 5.66111,2.26458 0.80237,-0.21824 1.61225,-0.39931 2.39757,-0.59947 1.80764,-0.4607 4.66914,0.0955 5.26153,1.86492 0.64585,1.92802 1.10552,3.91946 1.39878,5.92754 0.49309,0.5473 0.99129,1.0837 1.33195,1.7316 0.31031,0.5889 0.55924,1.2958 0.73246,2.06475 0.10571,-0.80612 0.17391,-1.76126 0.20119,-2.86372 0.0101,-0.43 0.10571,-0.92718 0.0682,-1.39878 0.40614,1.23135 0.79794,2.60933 1.06563,3.59649 0.15345,0.5647 0.22847,1.15599 0.33418,1.7316 0.0818,0.44739 0.37544,0.95651 0.39965,1.39878 -8.2e-4,0.0182 -9.2e-4,0.0921 0,0.13299 v 0.0682 c -0.0105,0.0341 -0.0512,0.16368 -0.0682,0.20119 -1.28318,2.83065 -2.21957,5.14454 -2.99705,6.99316 0.0648,0.73179 0.11253,1.47142 0.20119,2.19775 -0.43511,0.1023 -0.89921,0.21483 -1.33194,0.33418 -3.00524,6.79732 -3.33635,4.29135 -16.45059,2.46441 -0.97663,-1.04892 -2.18309,-1.95462 -2.99705,-3.13038 -3.51026,-1.39572 -6.63545,-2.82451 -6.99316,-2.99705 -11.63393,-5.61027 -22.46368,-12.73911 -32.16854,-21.24591 -0.81943,-0.71848 -1.57815,-1.41105 -2.26459,-2.13125 -12.36012,9.29468 -23.96916,4.67985 -23.04416,-5.32815 -20.16067,-2.81803 -18.6821,-24.70917 4.46232,-24.70917 h 5.39473 c 7.3911,0 10.03491,-0.002 15.58475,0.13299 3.27054,-1.32717 7.01362,-2.79279 9.59063,-3.66309 1.99519,-0.67382 4.04702,-1.24908 6.06076,-1.86493 2.32869,-0.53401 5.53597,-1.43697 8.19198,-1.46528 0.37953,-0.004 0.71167,0.0273 1.06563,0.0682 2.09885,0.21483 4.20927,0.68234 6.19396,1.39878 0.64108,0.23188 1.16928,0.60426 1.73159,0.99913 0.53299,0.10571 1.06154,0.24893 1.59827,0.33418 1.38958,0.21483 3.62428,0.45285 4.9951,0.53299 0.58823,0.0341 1.20953,0.008 1.7981,0 0.15004,-0.002 0.50536,-0.0546 0.59948,-0.0682 -0.61108,0.1364 -1.25079,0.27962 -1.86493,0.39965 3.92317,-0.008 7.87321,-0.11935 11.78847,-0.33418 0.0852,-1.33774 0.2387,-2.63286 0.46615,-3.92951 v -0.0682 h 0.0682 v -0.0682 h 0.0682 0.0682 c 0.18414,0.0375 0.53161,0.20119 0.73246,0.26598 h 0.0682 0.0682 c 0.24211,0.0409 0.49241,0.0921 0.73247,0.13299 0.12617,-0.1705 0.25234,-0.29326 0.39965,-0.39966 1.02982,-0.63016 2.58137,-0.0141 3.99611,1.19896 1.40595,0.1705 2.85997,0.26939 4.2625,0.46615 1.63442,0.22847 3.09969,0.52241 4.59549,0.7993 1.24192,-0.18755 2.49817,-0.3543 3.72969,-0.59948 1.07926,-0.21483 2.1483,-0.46546 3.19687,-0.7993 0.55072,-0.17391 1.07961,-0.47876 1.59827,-0.73281 0.73997,-0.3618 1.45232,-1.16417 2.33108,-1.06562 1.6726,0.18755 3.34282,0.47671 4.9951,0.7993 0.84295,-0.36317 1.68045,-0.72463 2.5309,-0.99913 0.0648,-1.31694 0.12958,-2.18854 0.20119,-2.46441 z m -25.24198,55.74549 c -0.26257,2.01804 -0.71576,3.13447 -1.39878,3.59649 0.075,1.32206 0.11594,2.67685 0.20119,3.99611 1.54711,-1.73603 1.78002,-5.01358 1.19895,-7.5926 z m -1.39878,3.59649 c -0.13981,-2.48418 -0.31031,-4.95715 -0.66598,-7.39278 -0.13299,-0.14663 -0.27621,-0.31713 -0.39965,-0.46614 -5.05795,-0.80954 -8.0624,-1.62009 -9.99021,-1.99792 4.0148,4.93689 8.11093,10.52691 10.52303,10.12344 0.0375,-0.01 0.16368,-0.0546 0.20119,-0.0682 0.075,-0.0329 0.25234,-0.13981 0.33418,-0.20119 z m 20.91291,-29.7709 0.0682,-0.0682 v -0.0682 c 0.11253,-0.25916 0.22847,-0.53605 0.33418,-0.7993 -0.0852,0.0266 -0.18073,0.0409 -0.26598,0.0682 -0.29667,0.2387 -0.58174,0.52173 -0.93229,0.73246 0.2728,0.0682 0.52071,0.075 0.7993,0.13299 z m 4.3957,0.59948 c 0.1364,0.01 0.26598,-0.009 0.39965,0 9.9e-4,-0.0409 -10e-4,-0.0921 0,-0.13299 -0.0887,-0.004 -0.22847,0.009 -0.39965,0 6.1e-4,0.0409 -6.1e-4,0.0955 0,0.13299 z m 7.05976,-26.574 c -0.0222,0.0127 -0.0955,0.10571 -0.13299,0.13299 h -0.0682 -0.0682 l -0.0682,0.0682 h -0.0682 v 0.0682 h -0.0682 l -0.0682,0.0682 c 0.12276,0.008 0.21142,0.006 0.33418,0 0.17391,-0.009 0.62982,0.0161 0.86579,0 h 0.0682 l 0.0682,-0.0682 v -0.0682 l -0.0682,-0.0682 -0.0682,-0.0682 h -0.0682 l -0.0682,-0.0682 h -0.0682 -0.0682 -0.0682 c -0.0258,9.2e-4 -0.0784,9.9e-4 -0.13299,0 h -0.0682 -0.0682 z m -1.59827,1.19896 -0.0682,0.0682 v 0.0648 h 0.0682 0.0682 v -0.0682 z m -5.92754,1.6651 c -0.058,1.21635 -0.11935,2.44566 -0.13299,3.66309 0.1023,-0.0921 0.23188,-0.17391 0.33418,-0.26598 -0.006,-1.44379 -0.0214,-2.5459 0.0682,-3.3302 -0.0955,-0.0205 -0.1705,-0.0477 -0.26598,-0.0682 z m 0.20119,3.3967 c 0.003,0.5913 -9.5e-4,1.21874 0,1.93143 0.12276,-0.76896 0.26598,-1.56553 0.39966,-2.33108 -0.12958,0.11594 -0.26939,0.28303 -0.39966,0.39965 z m 0,1.93143 c -0.1023,0.64142 -0.16709,1.28932 -0.26598,1.93142 0.0286,1.68625 0.0682,3.37454 0.13299,5.0617 0.13299,-2.79892 0.1364,-5.11595 0.13299,-6.99312 z m -0.26598,1.93142 c -0.0204,-1.20305 -0.0784,-2.3945 -0.0682,-3.59649 -0.30008,0.26598 -0.56401,0.53742 -0.86579,0.7993 0.36452,1.53484 0.53332,2.90362 0.66597,4.19591 0.0716,-0.47263 0.19437,-0.92582 0.26598,-1.39879 z m 11.65528,1.26545 c -0.0217,2.93772 -0.3768,7.37542 -1.86493,10.72285 2.74949,-2.20115 4.28317,-4.78945 1.86493,-10.72285 z m -164.50587,21.3791 c 5.10552,-0.0341 11.60386,3.20029 17.44962,10.58965 0.78873,0.99709 0.12276,0.22506 1.13212,1.13212 0.50502,0.45422 0.92923,0.91491 1.46528,1.33195 0.3069,0.2387 0.66324,0.40647 0.99913,0.59948 1.97166,1.13314 0.95037,0.64278 2.26458,1.19895 h 0.0682 c 3.90353,2.00508 1.49085,0.682 6.19396,4.99511 -0.0375,-0.0614 -0.1023,-0.19778 -0.13299,-0.26598 0.34782,0.16368 0.62641,0.43409 0.93229,0.66597 0.7161,0.54253 1.41754,1.11916 2.13125,1.6651 2.73925,1.99213 5.24445,4.29381 7.59257,6.72677 0.40136,0.41602 0.74952,0.83239 1.13212,1.26545 0.2046,0.23188 0.48388,0.4832 0.66597,0.73247 0.0257,0.0443 0.11253,0.21824 0.13299,0.26598 0.57118,1.3681 1.10894,2.72903 1.59827,4.12931 -0.0546,-0.35055 -0.0989,-0.71406 -0.13299,-1.06563 l 0.0682,0.0682 c 0.0648,0.13299 0.15686,0.37715 0.20119,0.46615 0.32736,0.65472 0.5855,1.27329 0.8658,1.86493 0.0341,0.12958 0.24211,0.83511 0.53298,1.53177 -0.20119,-0.22847 -0.48831,-0.45523 -0.7993,-0.66597 0.1364,0.39113 0.32395,0.80953 0.46615,1.19895 -0.14322,0.41943 -0.33418,0.81499 -0.46615,1.19896 0.0682,0.62915 0.15686,1.23067 0.13299,1.86493 -0.009,0.24552 -0.33077,1.16656 -0.73247,2.19774 -0.15004,1.01516 -0.47024,2.01429 -0.8658,2.99705 1.19214,0.67348 2.34813,1.39606 3.46327,2.13125 0.59436,-0.75224 1.20748,-1.52393 1.73159,-2.26458 -0.0237,-1.10552 -0.0818,-2.17558 -0.26598,-3.26337 -0.15345,-0.91592 -0.82181,-1.71489 -1.26545,-2.5309 l -0.0682,-0.0682 c -0.0245,-0.0281 -0.03,-0.0818 -0.0682,-0.13299 0.31031,0.76282 0.47092,1.4605 0.53299,1.6651 -0.37681,-0.65983 -0.56572,-1.28113 -0.73247,-1.86493 -0.0477,-0.0477 -0.0955,-0.0921 -0.13299,-0.13299 l -0.0682,-0.0682 -0.0682,-0.0682 v -0.0682 h 0.0682 0.0682 c -0.26257,-0.62505 -0.55106,-1.27329 -0.79931,-1.86492 0.41875,0.57219 0.60801,1.18156 0.79931,1.86492 h 0.0682 l 0.0682,0.0682 h 0.0682 l 0.0682,0.0682 c 0.11253,0.12617 0.35498,0.40579 0.46615,0.53299 l 0.0682,0.0682 0.0682,0.0682 c 1.04141,0.86409 0.84363,0.69939 1.73159,1.33194 0.60869,0.5248 1.04108,0.8791 1.33195,1.13212 -0.4907,1.05983 -1.14542,2.15376 -1.93142,3.26337 0.025,1.16281 0.009,2.3038 0.0682,3.46327 -0.56436,-0.4341 -1.19146,-0.79862 -1.7981,-1.19896 -1.92221,2.43235 -4.08872,4.88643 -5.66114,7.25958 0.4583,0.63631 0.86136,1.33093 1.19895,2.06476 0.12276,0.26598 0.19437,0.52719 0.20119,0.73281 v 0.0682 0.0682 0.0682 0.0682 c -0.0137,0.0308 -0.11594,0.1705 -0.13299,0.20119 l -0.0682,0.0682 -0.0682,0.0682 -0.0682,0.0682 c -0.55617,0.38124 -1.69647,0.55276 -2.99705,0.46615 -0.54184,1.87822 -0.35293,3.59417 1.13212,5.12833 5.47796,5.6591 7.61395,-13.79478 11.12247,-20.84629 v -0.0682 l -0.0682,-0.0682 v -0.0682 c 0.16368,0.12617 0.36453,0.21824 0.53298,0.33418 0.37272,0.11253 0.56674,0.18073 0.73247,0.26598 0.31713,0.20119 0.68746,0.59948 2.06476,1.7981 1.0513,0.91524 2.06646,2.19399 2.99704,3.26337 h -0.0682 c -0.50809,-0.44194 -0.82522,-0.69257 -0.99913,-0.79931 h -0.0682 -0.0682 v 0.0682 c 0.36453,0.59027 2.86816,3.07344 4.12928,3.3967 1.39537,1.0288 2.93771,1.86732 4.39572,2.79723 0.39761,0.25234 0.81329,0.38533 1.13212,0.73246 1.49256,1.62453 2.85383,3.43023 4.2625,5.1283 -0.61857,-0.95855 -1.21293,-1.92767 -1.86492,-2.86371 l -0.0682,-0.0682 v -0.0682 c 0.38498,0.35464 0.86852,0.82556 1.59826,1.46527 l 0.0682,0.0682 c 0.16368,0.1023 0.43273,0.22165 0.59948,0.33418 0.35566,0.23529 0.70826,0.49923 1.06563,0.73247 1.36059,1.2085 2.98681,1.9437 4.52892,2.86406 1.31183,0.78294 1.44618,0.84773 2.66423,1.6651 1.39571,0.84807 2.35188,1.81787 3.66309,3.06355 0.43103,0.4092 0.71133,0.91251 1.13212,1.33194 l 0.0682,0.0682 c 0.1364,0.0955 0.40511,0.22506 0.53298,0.33418 0.66257,0.56606 1.28285,1.14985 1.93143,1.7316 1.77627,1.58906 3.47895,3.27735 5.0617,5.06174 0.0173,0.007 0.0921,-0.0124 0.13299,0 v 0.0682 h 0.0682 c 0.43068,0.29667 0.92957,0.99606 1.33195,1.33194 0.35327,0.29667 0.67449,0.60528 0.99913,0.9323 h 0.0682 v 0.0682 c 0.0682,0.0682 0.13299,0.13299 0.20119,0.20119 0.058,0.0546 0.14322,0.0784 0.20119,0.13299 v 0.0682 h 0.0682 c 0.10912,0.0921 0.22165,0.16709 0.33418,0.26598 0.41704,0.3959 0.83204,0.82112 1.26545,1.19895 v 0.0682 h 0.0682 c 0.0614,0.0326 0.20801,0.0955 0.26598,0.13299 0.25575,0.1705 0.55174,0.35021 0.7993,0.53299 0.46956,0.34611 0.86273,0.71916 1.33195,1.06562 0.48047,0.35464 1.04039,0.65984 1.53177,0.99913 0.59198,0.50877 1.20441,1.02539 1.79809,1.53177 l 0.0682,0.0682 0.0682,0.0682 0.0682,0.0682 c 0.89888,0.7028 1.02982,0.7959 2.06476,1.59827 2.87258,2.19161 5.37784,4.77738 7.92555,7.32618 1.01175,1.01209 2.00849,2.09749 3.06355,3.06354 0.62403,0.57118 1.69272,1.19112 2.4644,1.66511 21.08066,12.94719 6.45923,34.80542 -13.91972,20.77968 -2.86781,-1.9737 -3.46636,-2.34028 -6.39375,-4.9951 -0.97151,-0.88114 -1.87311,-1.86663 -2.79722,-2.79722 -1.82947,-1.84208 -3.5969,-3.73995 -5.66115,-5.32809 -0.10912,-0.0852 -0.74986,-0.59641 -1.26545,-0.99913 -0.22847,-0.18073 -0.49615,-0.31713 -0.59948,-0.39966 l -0.0682,-0.0682 c -0.58038,-0.42318 -1.1212,-0.94729 -1.59826,-1.39878 -0.0852,-0.0614 -0.15686,-0.10571 -0.20119,-0.13299 -0.59743,-0.41261 -1.17066,-0.80339 -1.7981,-1.26545 -0.22165,-0.16368 -0.44602,-0.30349 -0.66597,-0.46615 -1.54814,-1.14917 -3.12629,-2.25605 -4.46229,-3.66305 -0.48422,-0.43478 -1.19009,-1.07517 -1.6651,-1.53177 l -0.0682,-0.0682 -0.0682,-0.0682 c -0.0682,-0.0477 -0.13299,-0.0853 -0.20119,-0.13299 -0.16027,-0.11594 -0.3069,-0.21824 -0.46615,-0.33418 -0.77271,-0.75157 -1.5686,-1.43595 -2.33108,-2.19775 l -0.0682,-0.0682 c -0.0177,-0.0327 -0.0512,-0.1705 -0.0682,-0.20119 l -0.0682,-0.0682 c -0.31713,-0.34543 -0.68063,-0.65506 -0.99913,-0.99913 -0.42591,-0.46001 -0.58345,-0.697 -0.66597,-0.7993 l -0.0682,-0.0682 c -0.0443,-0.0477 -0.29667,-0.26257 -1.79809,-1.66511 -1.89869,-1.70329 -2.6922,-2.37813 -4.59549,-4.2625 v -0.0682 h -0.0682 v -0.0682 l -0.0682,-0.0682 c -0.0887,-0.0614 -0.17732,-0.13981 -0.26598,-0.20119 -1.20134,-0.81874 -2.48862,-1.44038 -3.72969,-2.19774 -0.69871,-0.42659 -1.38855,-0.87057 -2.06475,-1.33195 -0.41261,-0.28303 -0.79692,-0.56913 -1.19896,-0.8658 -2.64957,-1.87106 -2.56057,-1.7333 -5.06173,-3.92951 l -0.0682,-0.0682 v -0.0682 -0.0682 h -0.0682 c -0.41636,-0.3751 -0.91661,-0.79692 -1.39879,-1.19896 -1.79809,-1.09426 -3.56283,-2.14898 -5.26152,-3.3967 -0.86035,-0.67586 -1.77457,-1.34354 -2.5974,-2.06475 -0.49411,-0.43307 -1.37423,-0.78498 -1.79809,-1.26545 -0.0255,-0.0375 -0.11253,-0.16368 -0.13299,-0.20119 l -0.0682,-0.0682 v -0.0682 c -0.005,-0.0252 -0.0648,-0.17391 -0.0682,-0.20119 v -0.0682 -0.0682 c -0.26257,-0.23529 -0.51048,-0.46547 -1.06563,-0.99913 -0.68473,-0.74952 -0.56026,-0.64654 -1.26545,-1.46528 -0.19096,-0.22165 -0.43784,-0.42454 -0.59948,-0.66597 -0.19096,-0.11253 -0.34441,-0.28303 -0.53298,-0.39965 -0.63835,-0.44126 -2.71368,-1.87721 -3.19687,-2.33108 l -0.0682,-0.0682 -0.0682,-0.0682 c 0.0921,-0.29667 0.22506,-0.57288 0.33418,-0.8658 -0.11253,0.25575 -0.22506,0.44057 -0.33418,0.66597 h -0.0682 c -0.13299,-0.10571 -0.36351,-0.35702 -0.46615,-0.46614 l -0.0682,-0.0682 c -1.10621,-0.82488 -1.2825,-0.90195 -2.66423,-2.06476 -0.49616,-0.41738 -0.99845,-0.81533 -1.46528,-1.26545 -0.41261,-0.39795 -0.78567,-0.86546 -1.19896,-1.26545 -0.47467,-0.35123 -0.86068,-0.81601 -1.26545,-1.26545 -1.45982,-1.62043 -2.52408,-3.67482 -3.3302,-5.46135 -0.489,-1.08404 -0.44433,-1.09291 -0.53299,-1.86493 -0.34714,-0.73827 -0.69905,-1.46903 -1.06562,-2.19775 -0.18414,-0.36453 -0.51662,-0.66597 -0.59948,-1.06562 -0.0211,-0.1023 -0.0443,-0.23188 -0.0682,-0.33418 v -0.0682 c -1.96518,-1.97167 -1.14678,-1.11848 -3.86292,-3.26337 -1.84515,-1.42743 -3.90888,-2.97523 -5.59451,-4.59552 -0.0921,-0.0887 -0.2046,-0.21824 -0.33418,-0.33418 -0.57425,-0.28644 -1.17577,-0.54458 -1.7316,-0.8658 -2.44258,-1.41174 -4.7873,-3.02229 -6.92656,-4.86191 -1.89801,-1.63237 -4.34673,-4.33667 -5.79434,-6.32716 -0.67109,-0.92274 -1.13485,-1.95768 -1.7316,-2.93055 -7.68007,-12.52114 -3.79342,-20.98865 3.86288,-21.71212 0.32736,-0.0309 0.65881,-0.0648 0.99913,-0.0682 z m 42.89143,46.68771 c -0.11594,-0.0648 -0.21483,-0.13299 -0.33418,-0.20119 -0.15686,0.32054 -0.31713,0.56401 -0.39965,0.66597 v 0.0682 h -0.0682 v -0.0682 -0.0682 -0.0682 c 0.0192,-0.14322 0.0512,-0.34611 0.13299,-0.66597 -0.80272,-0.4491 -1.59998,-0.94559 -2.39758,-1.39878 -0.78464,2.32425 -1.62145,5.05962 -2.4644,7.72579 0.4699,0.36215 0.90331,0.73725 1.33194,1.13212 1.61021,-2.36347 3.22007,-4.70215 4.19591,-7.12635 z m -3.06355,-1.7316 c 1.01346,-3.00182 1.99826,-5.33164 2.73073,-5.99413 l 0.0682,-0.0682 0.0682,-0.0682 h 0.0682 0.0682 0.0682 0.0682 0.0682 l 0.0682,0.0682 h 0.0682 l 0.0682,0.0682 v 0.0682 c 0.0223,0.0313 0.0443,0.0955 0.0682,0.13299 0.12617,0.26257 0.30349,0.73724 0.39965,1.26545 0.0512,0.28644 0.10912,0.58277 0.13299,0.8658 0.17391,-0.52071 0.32736,-1.06051 0.53299,-1.6651 -0.0955,-0.87978 -0.23188,-1.78719 -0.39966,-2.66424 -0.57526,-0.31713 -1.34183,-0.5947 -2.33107,-0.8658 -2.91078,-0.7976 -9.35888,-2.44394 -11.25566,-1.46527 -0.0341,0.0217 -0.1705,0.10912 -0.20119,0.13299 l -0.0682,0.0682 -0.0682,0.0682 c -0.0293,0.0409 -0.12617,0.18414 -0.13299,0.20119 -0.008,0.0313 0.005,0.0955 0,0.13299 -0.0136,0.24552 -5.8e-4,0.64517 0.13299,0.93229 1.88607,4.04931 5.72931,6.48487 9.79042,8.79139 z m -19.84729,-5.92753 c -0.0477,0.18073 -0.0921,0.34986 -0.13299,0.53298 0.11253,0.28303 0.22165,0.58277 0.33418,0.8658 -0.0784,-0.46444 -0.15004,-0.93196 -0.20119,-1.39878 z m 30.83653,4.92854 h 0.0682 v 0.0682 h -0.0682 z m -15.71795,15.51816 c -0.12617,0.3427 -0.2728,0.682 -0.39965,0.99913 0.15004,-0.32736 0.30008,-0.67655 0.46614,-0.99913 z" />
    </clipPath>
  </defs>
  <g
     id="layer1"
     transform="translate(-7.2170243,-61.866669)">
    <g
       id="g41"
       style="fill:var(--primary);fill-opacity:1;stroke-width:0.0366388"
       transform="matrix(0.21177088,0,0,0.21177088,-271.51383,330.0515)">
      <path
         id="path39"
         style="fill:var(--primary);fill-opacity:1;stroke:#000000;stroke-width:0;stroke-linecap:butt;stroke-linejoin:miter;stroke-dasharray:none;stroke-opacity:1"
         d="m 1909.8372,-924.98421 28.2477,-27.42419 -53.9994,-56.6551 178.1539,-13.9425 -24.1227,171.95719 -50.2372,-51.56503 -29.6191,28.2296 z" />
      <path
         id="path2"
         style="fill:#ffffff;stroke-width:0.0366388"
         d="m 393.35078,321.81875 c -13.65622,-1.4061 -70.55759,-1.05019 -85.5164,0.53281 -7.425,0.7857 -14.60938,1.65745 -15.98438,1.93145 -1.375,0.274 -7.2123,1.22855 -12.9873,2.13125 -46.016,7.1926 -108.12008,29.73603 -144.592,52.48203 -5.24207,3.2693 -9.73714,5.92754 -9.99023,5.92754 -0.92311,0 -24.457331,15.96959 -31.102931,21.11269 -7.67794,5.9421 -16.900621,13.67935 -22.644531,18.91485 -2.11197,1.925 -4.61303,3.9123 -5.52793,4.4623 -1.74855,1.0511 -31.123091,31.40396 -39.694531,41.02656 -2.75,3.0873 -6.533399,7.82535 -8.458399,10.52305 -1.925,2.6977 -6.673047,9.23304 -10.5230464,14.51914 -3.85,5.2861 -7.4421875,10.39747 -7.9921875,11.32227 -0.55,0.9248 -2.204416,3.21192 -3.663086,5.12832 -1.45867,1.9164 -3.4459747,4.97476 -4.4623047,6.72676 -1.0163304,1.7521 -5.5078544,9.4284 -9.9902344,17.1166 -12.05191,20.6715 -22.676953,42.6838 -30.836523,63.9375 -3.68035,9.5864 -11.521841,34.75236 -11.522071,36.96386 -8e-5,0.695 -0.417962,2.10868 -0.932422,3.06368 -1.17481,2.1809 -4.441242,15.48728 -6.060742,24.70918 -0.67611,3.85 -1.606958,7.89121 -2.064648,8.99121 -0.4577,1.1 -1.368007,6.9373 -1.998047,12.9873 -0.63004,6.05 -1.605982,11.88731 -2.197852,12.98731 -0.67693,1.2581 -1.240956,14.27382 -1.531836,35.03242 -0.36669,26.1693 -0.149991,36.7427 1.198829,51.0168 0.9355,9.89999 2.120571,19.32949 2.597461,20.97949 0.47689,1.65 1.581697,7.4873 2.464257,12.9873 1.52982,9.5336 2.066485,12.17833 4.462305,22.51133 2.10369,9.0731 3.312271,13.24942 10.256641,35.03242 3.95195,12.3964 15.069506,40.58566 19.447656,49.28516 3.54302,7.04 3.62518,8.21008 1.26543,16.18418 -2.4024,8.1182 -5.024368,17.37108 -5.860938,20.51328 -0.5125,1.925 -1.554485,5.7084 -2.331055,8.4584 -6.50738,23.044 -8.109727,28.56968 -9.257617,32.50161 -0.72265,2.475 -2.716235,9.9171 -4.462304,16.5171 -1.74608,6.6 -3.538034,12.8864 -3.996094,13.9864 -0.45807,1.1 -1.119465,3.3451 -1.465235,4.9951 -0.34577,1.65 -1.742511,6.6558 -3.063671,11.0558 -1.32116,4.4 -3.368747,11.3266 -4.528907,15.4516 -1.16016,4.125 -3.145184,11.1182 -4.462304,15.5182 -1.31713,4.4 -4.96604,17.2304 -8.058789,28.5054 -7.64698,27.8779 -7.996867,29.2241 -10.922657,39.4948 -4.26702,14.979 -6.576446,22.8788 -7.525976,25.5084 -1.21102,3.3538 -4.99512,17.7015 -4.99512,18.9814 v 0.067 0.067 l 0.0666,0.067 v 0.067 0.067 0.067 l 0.0666,0.067 v 0.067 l 0.0666,0.067 h 0.0666 l 0.0666,0.067 c 1.1354,0.6659 5.24875,-0.2795 16.650391,-3.7297 7.425,-2.2467 23.656445,-7.0063 36.031445,-10.5896 12.375,-3.5833 25.39668,-7.4468 28.97168,-8.525 3.575,-1.0783 8.963281,-2.5982 11.988281,-3.3967 3.0250027,-0.7986 6.4259768,-1.839 7.5259768,-2.331 1.1,-0.4921 4.24316406,-1.4576 6.993164,-2.1313 2.75,-0.6737 9.0363282,-2.4681 13.9863282,-3.9961 10.90684,-3.3669 20.025988,-6.0786 28.039258,-8.3918 3.3,-0.9526 8.879492,-2.6142 12.454492,-3.6631 20.73465,-6.0832 35.189199,-10.2426 40.027539,-11.522 7.575405,-2.0031 12.158225,-3.3955 14.519145,-4.3957 1.1,-0.466 6.48828,-2.2344 11.98828,-3.9295 5.5,-1.6951 12.99979,-4.0222 16.65039,-5.195 l 6.59355,-2.1312 12.8541,6.5269 c 22.22623,11.2521 49.67032,21.9024 76.392,29.6377 4.125,1.1941 8.87304,2.5764 10.52304,3.0637 1.65,0.4873 5.4334,1.4134 8.4584,2.0647 3.025,0.6512 7.06621,1.5605 8.99121,2.0646 6.20162,1.6243 25.18843,4.6797 36.49766,5.8609 6.05,0.6319 13.75319,1.6075 17.1166,2.1313 12.67557,1.9739 70.11242,0.5952 86.91504,-2.0647 3.3,-0.5224 10.03535,-1.4415 14.98535,-2.0646 4.95,-0.6231 9.88926,-1.4976 10.98926,-1.9314 1.1,-0.4338 5.65683,-1.4949 10.05683,-2.3311 4.4,-0.8361 11.32657,-2.4097 15.45157,-3.5299 4.125,-1.1202 8.61523,-2.3629 9.99023,-2.7307 14.24637,-3.8089 43.22178,-13.9296 55.81211,-19.5142 28.14057,-12.4821 66.45195,-35.1728 91.24414,-54.0805 28.54879,-21.7725 56.49694,-50.0887 82.45274,-83.4517 3.18985,-4.10051 19.99679,-29.53391 27.50644,-41.62601 5.84007,-9.4037 18.94865,-36.09985 24.10977,-49.08535 2.22688,-5.603 4.67497,-11.53711 5.39472,-13.18711 3.62437,-8.3087 6.40392,-16.52422 10.32325,-30.50352 7.14591,-25.4877 11.10433,-44.91227 13.71992,-67.00117 0.8792,-7.425 1.97716,-16.59668 2.46426,-20.44668 1.20998,-9.5651 1.21151,-59.46102 0,-64.73672 -0.53859,-2.3454 -1.62061,-11.25566 -2.46426,-19.78066 -0.84365,-8.525 -1.74922,-16.60742 -1.99805,-17.98242 -0.99179,-5.4804 -2.85031,-14.00672 -6.52695,-30.50352 -3.66522,-16.4455 -11.60208,-40.61818 -19.38106,-58.80918 -2.53887,-5.9371 -4.66211,-11.03486 -4.66211,-11.32226 0,-1.4213 -16.37014,-32.93605 -20.97949,-40.36055 -2.90239,-4.675 -6.95706,-11.21914 -8.99121,-14.51914 -9.11989,-14.7952 -19.31722,-28.88389 -30.50352,-42.22539 -4.4,-5.2477 -9.40651,-11.39112 -11.12246,-13.65332 -3.3258,-4.3847 -22.59034,-24.14265 -30.90312,-31.70235 -23.66711,-21.5231 -51.42779,-41.85089 -80.9875,-59.20879 -10.3425,-6.0733 -46.77611,-22.61145 -61.00703,-27.70625 -12.50672,-4.4775 -30.11999,-10.16345 -33.9668,-10.98925 -2.2,-0.4722 -6.69023,-1.59046 -9.99023,-2.46426 -15.73732,-4.167 -40.06379,-8.33045 -62.00606,-10.58965 z m -39.96094,73.46152 c 28.59878,0.21809 60.5792,3.86761 84.11778,9.92364 26.25138,6.754 36.15015,9.80545 49.28515,15.18515 12.86908,5.2709 27.35949,12.1088 35.56524,16.7836 3.3,1.88 8.68828,4.84535 11.98828,6.66015 9.70884,5.3395 29.33533,18.83572 38.4957,26.44082 4.675,3.8812 9.59139,7.95372 10.92266,9.05782 24.38865,20.2269 51.06087,48.37204 66.9829,75.27274 1.13938,1.925 7.16815,13.56085 10.07511,18.23585 5.88871,9.4703 14.89565,27.81174 21.77871,44.48984 4.82165,11.6832 13.6079,37.64342 14.71894,43.49082 0.36576,1.925 1.05149,4.42793 1.53184,5.52793 2.21545,5.0734 5.39781,26.48737 8.05879,54.21367 1.3264,13.8205 0.70851,55.7395 -0.99903,67.8004 -1.9211,13.5693 -4.07783,26.21419 -4.99511,29.50449 -0.53665,1.925 -1.90048,7.05547 -3.06367,11.45547 -1.16319,4.4 -2.24179,8.44121 -2.39766,8.99121 -0.15587,0.55 -0.66183,2.41269 -1.06563,4.06269 -0.4038,1.65 -1.06294,3.89512 -1.53183,4.99512 -0.46889,1.1 -1.41431,3.79414 -2.06465,5.99414 -2.01628,6.8208 -10.90093,30.34643 -14.98535,39.62793 -6.89164,15.6608 -18.84516,36.38071 -32.16856,55.87871 -18.66671,27.3176 -47.55369,57.15834 -74.92675,77.45764 -9.1054,6.7524 -24.79403,17.7494 -27.30665,19.1146 -1.12178,0.6095 -5.20781,2.9858 -9.05781,5.2615 -6.52807,3.8596 -34.62309,18.0321 -42.49179,21.4458 -21.1726,9.1853 -53.89851,18.7212 -76.5252,22.2449 -18.73536,2.9176 -22.96469,3.4767 -34.96582,4.5955 -29.8355,2.7815 -55.53495,1.3564 -91.04434,-4.9951 -35.28278,-6.3109 -70.90878,-19.2579 -108.96015,-39.5614 -6.05,-3.2282 -15.48783,-8.4225 -16.65039,-8.9911 -5.08172,-2.4856 -4.27222,-1.8919 -5.99083,-1.8238 -2.09614,0.083 -10.80972,1.8042 -14.45585,3.0892 -3.24385,1.1432 -12.92071,4.0689 -21.44571,6.5269 -8.525,2.458 -20.199605,5.8625 -25.974605,7.5926 -5.775,1.7302 -11.870117,3.5501 -13.520117,3.9961 -4.89062,1.3221 -19.817356,6.0759 -21.978516,6.9931 -1.1,0.4669 -5.399024,1.8005 -9.524024,2.9971 -4.125,1.1967 -13.105468,3.8822 -19.980468,5.9942 -6.875,2.1119 -15.215235,4.6058 -18.515235,5.5279 -3.2999962,0.922 -7.0706266,2.1375 -8.3917966,2.664 -1.15602336,0.4607 -2.41636849,0.5395 -2.9970703,0.2665 l -0.066602,-0.067 h -0.066602 l -0.066602,-0.067 v -0.067 h -0.066601 v -0.067 c 0.00156,-0.041 0.00251,-0.1146 0,-0.1332 -0.079175,-1.3338 0.87166559,-5.9802 2.3310547,-11.0558 1.66046,-5.775 4.784704,-17.4496 6.993164,-25.9746 16.8271052,-64.95522 -1.2876094,7.8195 29.2380852,-105.49689 4.6756,-16.9258 5.594531,-20.433 5.594531,-21.3125 0,-0.5389 -3.979118,-9.21835 -8.858008,-19.31445 C 20.45107,877.75625 15.230875,865.118 10.325195,848.3707 0.33855886,814.2778 -3.4008519,791.6276 -5.3261719,754.3293 c -0.50473,-9.7779 1.03579,-43.19328 2.13125,-45.95508 0.43631,-1.1 1.3540569,-6.74607 1.9980469,-12.5211 1.20430995,-10.7998 2.17169825,-15.94065 7.1929688,-36.43105 3.82811,-15.6215 9.4607602,-32.48072 14.5191402,-43.55742 1.38143,-3.025 3.253667,-7.32402 4.129297,-9.52402 4.67393,-11.74301 20.673825,-41.39902 27.906055,-51.74942 1.707666,-2.44397 3.093074,-4.70191 3.263477,-5.26152 v -0.0666 -0.0666 l 0.0666,-0.0666 c 0.257544,-0.59986 1.407227,-2.24781 2.730664,-3.86289 4.12769,-5.0372 9.06184,-11.56535 11.52207,-15.11855 6.37503,-9.2071 15.039431,-18.94616 32.501563,-36.63086 7.19127,-7.2829 38.96625,-33.57215 43.62402,-36.09805 1.14795,-0.6225 4.02038,-2.40149 6.39375,-3.92949 8.60122,-5.5374 35.94193,-20.64508 44.68965,-24.70918 15.85734,-7.3671 34.8794,-14.15296 54.28028,-19.44766 5.35833,-1.4623 10.36406,-2.94877 11.18906,-3.26347 7.43607,-2.836 39.05001,-7.75373 63.53789,-9.85703 8.34453,-0.71673 17.50731,-1.00512 27.04023,-0.93243 z m 114.68791,285.78718 c -13.08525,12.47379 -32.53434,31.54259 -43.22441,42.35859 -10.69007,10.8161 -21.67104,21.37275 -24.44277,23.44375 -12.57673,9.3974 -30.52391,16.86115 -45.28907,18.91485 -4.55166,0.6331 -36.63924,1.08522 -82.58593,1.13222 -83.55321,0.085 -90.06037,0.44906 -110.6918,6.52696 -25.71154,7.5744 -48.46866,20.21823 -71.530078,39.69453 l -10.989258,9.25761 -0.266406,42.22539 c -0.14347,23.2186 0.01431,42.22534 0.333008,42.2254 0.3187,0 6.278941,-5.08577 13.253711,-11.32227 25.656913,-22.941 52.598923,-40.3142 72.728903,-46.8875 3.3,-1.0776 8.64123,-3.09121 14.41623,-4.52891 -3.12978,0.93894 6.45433,-1.56863 14.74826,-2.50757 12.20616,-0.78245 77.33141,-0.8225 77.33141,-0.8225 43.725,-0.38591 83.04785,-1.17345 87.44785,-1.73165 11.96342,-1.5175 23.45684,-4.16816 31.03633,-7.19296 1.1,-0.439 3.53633,-1.41375 5.46133,-2.13125 4.42278,-1.6486 25.33675,-12.13946 30.10391,-15.11856 13.4376,-8.3975 19.52579,-15.80069 72.26269,-65.66914 11.17743,-10.56948 20.83738,-19.51644 28.68772,-27.14602 7.34151,-7.13506 13.28243,-13.25449 12.3076,-14.65067 -6.46872,-9.26468 -45.76715,-48.81642 -47.3494,-48.41213 -2.1654,0.55329 -13.43067,12.50488 -23.74983,22.34183 z m 6.26053,131.33841 -12.45449,11.45547 c -6.83993,6.3128 -16.60997,15.38757 -21.71211,20.18027 -5.10215,4.7927 -10.97098,9.91047 -13.05391,11.32227 -2.08292,1.4118 -6.93945,4.99068 -10.78945,7.99218 -15.04343,11.7279 -40.42476,22.20078 -59.00898,24.37618 -5.46194,0.6394 -38.63114,1.13582 -84.45079,1.19882 -86.69857,0.1189 -88.04554,0.21591 -116.01992,8.59161 -13.3067,3.9842 -37.03971,16.587 -48.61914,25.8414 -9.40944,7.5201 -27.482715,23.7884 -28.438865,25.575 -0.55458,1.0363 -0.932422,14.17073 -0.932422,30.96973 v 29.17151 l -0.171747,10.3512 c 1.551502,0.2654 3.19617,-2.2705 4.957105,-3.5112 3.661708,-2.58 7.826153,-5.5894 12.70106,-8.4438 6.931799,-4.0588 13.608469,-8.60891 20.711459,-13.04929 6.11226,-3.82103 16.95593,-11.00603 26.56163,-15.38597 7.62046,-3.47474 23.32866,-9.13127 36.74127,-12.71917 13.40388,-3.5855 17.21103,-3.7863 99.96895,-4.4623 94.36955,-0.7709 89.39638,-0.33143 119.4832,-9.52403 7.81494,-2.3877 31.57597,-14.62688 39.69453,-20.44668 17.2595,-12.3724 34.22542,-26.72209 34.89922,-29.50449 0.27212,-1.1237 0.35251,-21.83388 0.19981,-46.02168 z"
         clip-path="url(#clipPath34)"
         transform="translate(1422.3516,-1587.3444)" />
    </g>
  </g>
</svg>
